# xmcd
# 
# Track frame offsets:
#     150
#     22097
#     37535
#     57977
#     76980
#     101862
#     124657
#     147115
#     171472
#     191667
#     212245
#     225545
#     247685
#     267250
#     287115
#     309565
#     328092
# 
# Disc length: 4712
# 
# Revision: 30
# Processed by: cddbd v1.5.2PL0 Copyright (c) Steve Scherf et al.
# Submitted via: fre:ac v1.0.31
# 
DISCID=f1126611
DTITLE=井上陽水 - GOLDEN BEST (GOLDEN BEST) cd2
DYEAR=2003
DGENRE=Pop
TTITLE0=????????
TTITLE1=????
TTITLE2=???????????
TTITLE3=???????
TTITLE4=?????
TTITLE5=??
TTITLE6=?????
TTITLE7=????????
TTITLE8=??????????
TTITLE9=TEENAGER
TTITLE10=Tokyo
TTITLE11=????? ??????
TTITLE12=??????
TTITLE13=Just Fit
TTITLE14=????????
TTITLE15=??
TTITLE16=???????
EXTD=YEAR: 2003
EXTT0=
EXTT1=
EXTT2=
EXTT3=
EXTT4=
EXTT5=
EXTT6=
EXTT7=
EXTT8=
EXTT9=
EXTT10=
EXTT11=
EXTT12=
EXTT13=
EXTT14=
EXTT15=
EXTT16=
PLAYORDER=
